<svg style="color:2AA461;" width="156" height="38" viewBox="0 0 156 38" fill="currentColor" xmlns="http://www.w3.org/2000/svg">
<path d="M0.34375 37V0.636363H16.1108C18.8807 0.636363 21.2067 1.00923 23.0888 1.75497C24.9827 2.50071 26.4091 3.55421 27.3679 4.91548C28.3385 6.27675 28.8239 7.88068 28.8239 9.72727C28.8239 11.0649 28.5279 12.2841 27.9361 13.3849C27.3561 14.4858 26.5393 15.4091 25.4858 16.1548C24.4323 16.8887 23.2012 17.3977 21.7926 17.6818V18.0369C23.3551 18.0961 24.7756 18.4927 26.054 19.2266C27.3324 19.9486 28.3504 20.9489 29.108 22.2273C29.8655 23.4938 30.2443 24.9853 30.2443 26.7017C30.2443 28.6903 29.7235 30.46 28.6818 32.0107C27.652 33.5613 26.1842 34.7805 24.2784 35.6683C22.3726 36.5561 20.0999 37 17.4602 37H0.34375ZM10.2159 29.1165H14.8324C16.4896 29.1165 17.7325 28.8087 18.5611 28.1932C19.3897 27.5658 19.804 26.6425 19.804 25.4233C19.804 24.571 19.6087 23.849 19.218 23.2571C18.8274 22.6652 18.2711 22.2154 17.549 21.9077C16.8388 21.5999 15.9806 21.446 14.9744 21.446H10.2159V29.1165ZM10.2159 15.3381H14.2642C15.1283 15.3381 15.8918 15.2019 16.5547 14.9297C17.2176 14.6574 17.7325 14.2668 18.0994 13.7578C18.4782 13.237 18.6676 12.6037 18.6676 11.858C18.6676 10.7334 18.2652 9.87524 17.4602 9.28338C16.6553 8.67969 15.6373 8.37784 14.4062 8.37784H10.2159V15.3381ZM41.4837 37.4261C39.7436 37.4261 38.2048 37.142 36.8672 36.5739C35.5414 35.9938 34.4998 35.1179 33.7422 33.946C32.9846 32.7741 32.6058 31.2827 32.6058 29.4716C32.6058 27.9801 32.8603 26.7076 33.3693 25.6541C33.8783 24.5888 34.5885 23.7188 35.5 23.044C36.4115 22.3693 37.4709 21.8544 38.6783 21.4993C39.8975 21.1442 41.2114 20.9134 42.62 20.8068C44.147 20.6884 45.3722 20.5464 46.2955 20.3807C47.2306 20.2031 47.9053 19.9605 48.3196 19.6527C48.7339 19.3331 48.9411 18.9129 48.9411 18.392V18.321C48.9411 17.6108 48.6688 17.0663 48.1243 16.6875C47.5798 16.3087 46.8814 16.1193 46.0291 16.1193C45.094 16.1193 44.3305 16.3265 43.7386 16.7408C43.1586 17.1432 42.8094 17.7647 42.6911 18.6051H33.6712C33.7895 16.9479 34.3163 15.4209 35.2514 14.0241C36.1984 12.6155 37.5774 11.491 39.3885 10.6506C41.1996 9.7983 43.4605 9.37216 46.1712 9.37216C48.1243 9.37216 49.8762 9.60298 51.4268 10.0646C52.9775 10.5144 54.2973 11.1477 55.3864 11.9645C56.4754 12.7694 57.304 13.7164 57.8722 14.8054C58.4522 15.8826 58.7422 17.0545 58.7422 18.321V37H49.5803V33.1648H49.3672C48.8227 34.1828 48.1598 35.0054 47.3786 35.6328C46.6091 36.2602 45.7273 36.7159 44.733 37C43.7505 37.2841 42.6674 37.4261 41.4837 37.4261ZM44.6797 31.2472C45.4254 31.2472 46.1238 31.0933 46.7749 30.7855C47.4377 30.4777 47.9763 30.0339 48.3906 29.4538C48.8049 28.8738 49.0121 28.1695 49.0121 27.3409V25.0682C48.7517 25.1747 48.4735 25.2753 48.1776 25.37C47.8935 25.4647 47.5857 25.5535 47.2543 25.6364C46.9347 25.7192 46.5914 25.7962 46.2244 25.8672C45.8693 25.9382 45.4964 26.0033 45.1058 26.0625C44.3482 26.1809 43.7268 26.3762 43.2415 26.6484C42.768 26.9089 42.4129 27.2344 42.1761 27.625C41.9512 28.0038 41.8388 28.4299 41.8388 28.9034C41.8388 29.661 42.1051 30.241 42.6378 30.6435C43.1705 31.0459 43.8511 31.2472 44.6797 31.2472ZM73.2264 21.6591V37H63.4252V9.72727H72.7292V14.9119H73.0133C73.6052 13.1837 74.6468 11.8284 76.1383 10.8459C77.6416 9.8634 79.3935 9.37216 81.394 9.37216C83.3234 9.37216 84.9984 9.81605 86.4189 10.7038C87.8511 11.5798 88.9579 12.7872 89.7392 14.326C90.5323 15.8648 90.9229 17.6226 90.911 19.5994V37H81.1099V21.6591C81.1217 20.3097 80.7785 19.2502 80.0801 18.4808C79.3935 17.7114 78.4347 17.3267 77.2037 17.3267C76.3987 17.3267 75.6944 17.5043 75.0907 17.8594C74.4989 18.2027 74.0431 18.6998 73.7235 19.3509C73.4039 19.9901 73.2382 20.7595 73.2264 21.6591ZM105.622 37.3551C103.68 37.3551 101.893 36.8461 100.259 35.8281C98.6377 34.8101 97.3356 33.2654 96.3532 31.1939C95.3825 29.1224 94.8972 26.5123 94.8972 23.3636C94.8972 20.0729 95.4062 17.3977 96.4242 15.3381C97.454 13.2784 98.7798 11.7692 100.401 10.8104C102.035 9.85156 103.751 9.37216 105.551 9.37216C106.9 9.37216 108.084 9.6089 109.102 10.0824C110.12 10.544 110.972 11.1655 111.659 11.9467C112.345 12.7161 112.866 13.5625 113.221 14.4858H113.363V0.636363H123.164V37H113.434V32.5256H113.221C112.842 33.4489 112.298 34.2775 111.588 35.0114C110.889 35.7334 110.037 36.3075 109.031 36.7337C108.036 37.148 106.9 37.3551 105.622 37.3551ZM109.244 29.8267C110.143 29.8267 110.913 29.5663 111.552 29.0455C112.203 28.5128 112.7 27.767 113.044 26.8082C113.399 25.8376 113.576 24.6894 113.576 23.3636C113.576 22.0142 113.399 20.8601 113.044 19.9013C112.7 18.9306 112.203 18.1908 111.552 17.6818C110.913 17.161 110.143 16.9006 109.244 16.9006C108.344 16.9006 107.575 17.161 106.936 17.6818C106.308 18.1908 105.823 18.9306 105.48 19.9013C105.148 20.8601 104.982 22.0142 104.982 23.3636C104.982 24.7131 105.148 25.8731 105.48 26.8438C105.823 27.8026 106.308 28.5424 106.936 29.0632C107.575 29.5722 108.344 29.8267 109.244 29.8267ZM145.661 25.0682V9.72727H155.462V37H146.158V31.8153H145.874C145.282 33.5554 144.246 34.9167 142.767 35.8991C141.287 36.8698 139.529 37.3551 137.493 37.3551C135.587 37.3551 133.918 36.9171 132.486 36.0412C131.066 35.1652 129.959 33.9579 129.166 32.419C128.384 30.8802 127.988 29.1165 127.976 27.1278V9.72727H137.777V25.0682C137.789 26.4176 138.132 27.477 138.807 28.2464C139.494 29.0159 140.452 29.4006 141.683 29.4006C142.5 29.4006 143.204 29.2289 143.796 28.8857C144.4 28.5305 144.862 28.0334 145.181 27.3942C145.513 26.7431 145.673 25.9678 145.661 25.0682Z" fill="currentColor"/>
</svg>
